<mxfile host="app.diagrams.net" modified="2024-06-16T22:21:21.927Z" agent="Mozilla/5.0 (Windows NT 10.0; Win64; x64) AppleWebKit/537.36 (KHTML, like Gecko) Chrome/126.0.0.0 Safari/537.36 Edg/126.0.0.0" version="24.5.4" etag="MMmbrCzzmB_i_2nFlMQ_" type="github">
  <diagram name="Page-1" id="fSwUkRZF5LNYfJY3dUu8">
    <mxGraphModel>
      <root>
        <mxCell id="0" />
        <mxCell id="1" parent="0" />
      </root>
    </mxGraphModel>
  </diagram>
</mxfile>
